<svg viewBox="0 0 820 680" xmlns="http://www.w3.org/2000/svg" font-family="Inter,system-ui,sans-serif">

  <rect width="820" height="680" fill="#f8fafd" rx="12"/>

  <!-- ══ RELATIONSHIP LINES (drawn first, boxes render on top) ══ -->

  <!-- users → chats (created_by) 1:* -->
  <line x1="196" y1="220" x2="268" y2="220" stroke="#5b6c7d" stroke-width="1.4"/>
  <text x="203" y="216" font-size="9" font-weight="700" fill="#003087">1</text>
  <text x="252" y="216" font-size="11" font-weight="700" fill="#003087">*</text>

  <!-- users → chats (assigned_to) 0:* dashed -->
  <line x1="196" y1="244" x2="268" y2="244" stroke="#5b6c7d" stroke-width="1.4" stroke-dasharray="4,2"/>
  <text x="252" y="240" font-size="11" font-weight="700" fill="#5b6c7d">*</text>

  <!-- chats → messages 1:* -->
  <line x1="462" y1="148" x2="504" y2="148" stroke="#5b6c7d" stroke-width="1.4"/>
  <text x="467" y="144" font-size="9" font-weight="700" fill="#003087">1</text>
  <text x="492" y="144" font-size="11" font-weight="700" fill="#003087">*</text>

  <!-- chats → notifications 1:*  — exit right side, go down in gap, enter left of notifications -->
  <path d="M 462,274 L 484,274 L 484,378 L 504,378" stroke="#5b6c7d" stroke-width="1.4" fill="none"/>
  <text x="467" y="270" font-size="9" font-weight="700" fill="#003087">1</text>
  <text x="492" y="374" font-size="11" font-weight="700" fill="#003087">*</text>

  <!-- chats → file_attachments 1:* — exit right, travel further down in gap -->
  <path d="M 462,292 L 492,292 L 492,548 L 504,548" stroke="#5b6c7d" stroke-width="1.4" fill="none"/>
  <text x="492" y="544" font-size="11" font-weight="700" fill="#003087">*</text>

  <!-- users → audit_logs 1:* — exit bottom, straight down -->
  <line x1="114" y1="338" x2="114" y2="390" stroke="#5b6c7d" stroke-width="1.4"/>
  <text x="119" y="354" font-size="9" font-weight="700" fill="#003087">1</text>
  <text x="119" y="382" font-size="11" font-weight="700" fill="#003087">*</text>

  <!-- users → notifications 1:* — exit right, travel below chats, enter left of notifications -->
  <path d="M 196,302 L 232,302 L 232,378 L 504,378" stroke="#5b6c7d" stroke-width="1.4" fill="none" stroke-dasharray="6,3"/>
  <text x="202" y="298" font-size="9" font-weight="700" fill="#003087">1</text>

  <!-- ══ ENTITY BOXES ══ -->

  <!-- users -->
  <rect x="24" y="148" width="172" height="190" rx="7" fill="#fff" stroke="#d9e2ef" stroke-width="1.5"/>
  <rect x="24" y="148" width="172" height="30" rx="7" fill="#003087"/>
  <rect x="24" y="168" width="172" height="10" fill="#003087"/>
  <text x="110" y="168" text-anchor="middle" font-size="12" font-weight="700" fill="#fff">users</text>
  <line x1="24" y1="178" x2="196" y2="178" stroke="#d9e2ef"/>
  <text x="34" y="194" font-size="10" font-weight="700" fill="#003087">PK  id (UUID)</text>
  <line x1="24" y1="200" x2="196" y2="200" stroke="#d9e2ef"/>
  <text x="34" y="216" font-size="10" fill="#132033">email UNIQUE</text>
  <line x1="24" y1="222" x2="196" y2="222" stroke="#d9e2ef"/>
  <text x="34" y="238" font-size="10" fill="#132033">password_hash</text>
  <line x1="24" y1="244" x2="196" y2="244" stroke="#d9e2ef"/>
  <text x="34" y="260" font-size="10" fill="#132033">role VARCHAR</text>
  <line x1="24" y1="266" x2="196" y2="266" stroke="#d9e2ef"/>
  <text x="34" y="282" font-size="10" fill="#132033">specialty</text>
  <line x1="24" y1="288" x2="196" y2="288" stroke="#d9e2ef"/>
  <text x="34" y="304" font-size="10" fill="#132033">is_active · created_at</text>
  <line x1="24" y1="310" x2="196" y2="310" stroke="#d9e2ef"/>
  <text x="34" y="330" font-size="9" fill="#5b6c7d">bcrypt-hashed password</text>

  <!-- audit_logs -->
  <rect x="24" y="390" width="172" height="138" rx="7" fill="#fff" stroke="#d9e2ef" stroke-width="1.5"/>
  <rect x="24" y="390" width="172" height="30" rx="7" fill="#003087"/>
  <rect x="24" y="410" width="172" height="10" fill="#003087"/>
  <text x="110" y="410" text-anchor="middle" font-size="12" font-weight="700" fill="#fff">audit_logs</text>
  <line x1="24" y1="420" x2="196" y2="420" stroke="#d9e2ef"/>
  <text x="34" y="436" font-size="10" font-weight="700" fill="#003087">PK  id (UUID)</text>
  <line x1="24" y1="442" x2="196" y2="442" stroke="#d9e2ef"/>
  <text x="34" y="458" font-size="10" fill="#0072ce" font-style="italic">FK  user_id → users</text>
  <line x1="24" y1="464" x2="196" y2="464" stroke="#d9e2ef"/>
  <text x="34" y="480" font-size="10" fill="#132033">action</text>
  <line x1="24" y1="486" x2="196" y2="486" stroke="#d9e2ef"/>
  <text x="34" y="502" font-size="10" fill="#132033">details TEXT</text>
  <line x1="24" y1="508" x2="196" y2="508" stroke="#d9e2ef"/>
  <text x="34" y="520" font-size="9" fill="#5b6c7d">timestamp (append-only)</text>

  <!-- chats -->
  <rect x="268" y="68" width="194" height="238" rx="7" fill="#fff" stroke="#d9e2ef" stroke-width="1.5"/>
  <rect x="268" y="68" width="194" height="30" rx="7" fill="#003087"/>
  <rect x="268" y="88" width="194" height="10" fill="#003087"/>
  <text x="365" y="88" text-anchor="middle" font-size="12" font-weight="700" fill="#fff">chats</text>
  <line x1="268" y1="98" x2="462" y2="98" stroke="#d9e2ef"/>
  <text x="278" y="114" font-size="10" font-weight="700" fill="#003087">PK  id (UUID)</text>
  <line x1="268" y1="120" x2="462" y2="120" stroke="#d9e2ef"/>
  <text x="278" y="136" font-size="10" fill="#132033">title</text>
  <line x1="268" y1="142" x2="462" y2="142" stroke="#d9e2ef"/>
  <text x="278" y="158" font-size="10" fill="#132033">status VARCHAR</text>
  <line x1="268" y1="164" x2="462" y2="164" stroke="#d9e2ef"/>
  <text x="278" y="180" font-size="10" fill="#132033">specialty · severity</text>
  <line x1="268" y1="186" x2="462" y2="186" stroke="#d9e2ef"/>
  <text x="278" y="202" font-size="10" fill="#132033">patient_context JSONB</text>
  <line x1="268" y1="208" x2="462" y2="208" stroke="#d9e2ef"/>
  <text x="278" y="224" font-size="10" fill="#132033">is_archived BOOLEAN</text>
  <line x1="268" y1="230" x2="462" y2="230" stroke="#d9e2ef"/>
  <text x="278" y="246" font-size="10" fill="#0072ce" font-style="italic">FK  created_by → users</text>
  <line x1="268" y1="252" x2="462" y2="252" stroke="#d9e2ef"/>
  <text x="278" y="268" font-size="10" fill="#0072ce" font-style="italic">FK  assigned_to → users</text>
  <line x1="268" y1="274" x2="462" y2="274" stroke="#d9e2ef"/>
  <text x="278" y="284" font-size="9" fill="#5b6c7d">created_at</text>

  <!-- messages -->
  <rect x="504" y="24" width="172" height="200" rx="7" fill="#fff" stroke="#d9e2ef" stroke-width="1.5"/>
  <rect x="504" y="24" width="172" height="30" rx="7" fill="#003087"/>
  <rect x="504" y="44" width="172" height="10" fill="#003087"/>
  <text x="590" y="44" text-anchor="middle" font-size="12" font-weight="700" fill="#fff">messages</text>
  <line x1="504" y1="54" x2="676" y2="54" stroke="#d9e2ef"/>
  <text x="514" y="70" font-size="10" font-weight="700" fill="#003087">PK  id (UUID)</text>
  <line x1="504" y1="76" x2="676" y2="76" stroke="#d9e2ef"/>
  <text x="514" y="92" font-size="10" fill="#132033">content TEXT</text>
  <line x1="504" y1="98" x2="676" y2="98" stroke="#d9e2ef"/>
  <text x="514" y="114" font-size="10" fill="#132033">sender_type</text>
  <line x1="504" y1="120" x2="676" y2="120" stroke="#d9e2ef"/>
  <text x="514" y="136" font-size="10" fill="#132033">citations JSONB</text>
  <line x1="504" y1="142" x2="676" y2="142" stroke="#d9e2ef"/>
  <text x="514" y="158" font-size="10" fill="#132033">is_generating · review_status</text>
  <line x1="504" y1="164" x2="676" y2="164" stroke="#d9e2ef"/>
  <text x="514" y="180" font-size="10" fill="#132033">review_feedback</text>
  <line x1="504" y1="186" x2="676" y2="186" stroke="#d9e2ef"/>
  <text x="514" y="202" font-size="10" fill="#0072ce" font-style="italic">FK  chat_id → chats CASCADE</text>
  <line x1="504" y1="208" x2="676" y2="208" stroke="#d9e2ef"/>
  <text x="514" y="218" font-size="9" fill="#5b6c7d">created_at</text>

  <!-- notifications -->
  <rect x="504" y="348" width="172" height="174" rx="7" fill="#fff" stroke="#d9e2ef" stroke-width="1.5"/>
  <rect x="504" y="348" width="172" height="30" rx="7" fill="#003087"/>
  <rect x="504" y="368" width="172" height="10" fill="#003087"/>
  <text x="590" y="368" text-anchor="middle" font-size="12" font-weight="700" fill="#fff">notifications</text>
  <line x1="504" y1="378" x2="676" y2="378" stroke="#d9e2ef"/>
  <text x="514" y="394" font-size="10" font-weight="700" fill="#003087">PK  id (UUID)</text>
  <line x1="504" y1="400" x2="676" y2="400" stroke="#d9e2ef"/>
  <text x="514" y="416" font-size="10" fill="#132033">type · title · body</text>
  <line x1="504" y1="422" x2="676" y2="422" stroke="#d9e2ef"/>
  <text x="514" y="438" font-size="10" fill="#132033">is_read BOOLEAN</text>
  <line x1="504" y1="444" x2="676" y2="444" stroke="#d9e2ef"/>
  <text x="514" y="460" font-size="10" fill="#0072ce" font-style="italic">FK  user_id → users</text>
  <line x1="504" y1="466" x2="676" y2="466" stroke="#d9e2ef"/>
  <text x="514" y="482" font-size="10" fill="#0072ce" font-style="italic">FK  chat_id (SET NULL)</text>
  <line x1="504" y1="488" x2="676" y2="488" stroke="#d9e2ef"/>
  <text x="514" y="514" font-size="9" fill="#5b6c7d">created_at</text>

  <!-- file_attachments -->
  <rect x="504" y="548" width="172" height="120" rx="7" fill="#fff" stroke="#d9e2ef" stroke-width="1.5"/>
  <rect x="504" y="548" width="172" height="30" rx="7" fill="#003087"/>
  <rect x="504" y="568" width="172" height="10" fill="#003087"/>
  <text x="590" y="568" text-anchor="middle" font-size="12" font-weight="700" fill="#fff">file_attachments</text>
  <line x1="504" y1="578" x2="676" y2="578" stroke="#d9e2ef"/>
  <text x="514" y="594" font-size="10" font-weight="700" fill="#003087">PK  id (UUID)</text>
  <line x1="504" y1="600" x2="676" y2="600" stroke="#d9e2ef"/>
  <text x="514" y="616" font-size="10" fill="#132033">filename · path · mime_type</text>
  <line x1="504" y1="622" x2="676" y2="622" stroke="#d9e2ef"/>
  <text x="514" y="638" font-size="10" fill="#0072ce" font-style="italic">FK  uploader_id → users</text>
  <line x1="504" y1="644" x2="676" y2="644" stroke="#d9e2ef"/>
  <text x="514" y="658" font-size="10" fill="#0072ce" font-style="italic">FK  chat_id → chats CASCADE</text>

  <!-- ══ LEGEND (top-left) ══ -->
  <rect x="24" y="24" width="192" height="104" rx="7" fill="#fff" stroke="#d9e2ef" stroke-width="1.2"/>
  <text x="120" y="44" text-anchor="middle" font-size="11" font-weight="700" fill="#003087">Legend</text>
  <line x1="40" y1="62" x2="76" y2="62" stroke="#5b6c7d" stroke-width="1.4"/>
  <text x="86" y="66" font-size="9" fill="#132033">1 : many (mandatory FK)</text>
  <line x1="40" y1="82" x2="76" y2="82" stroke="#5b6c7d" stroke-width="1.4" stroke-dasharray="4,2"/>
  <text x="86" y="86" font-size="9" fill="#132033">1 : many (optional FK)</text>
  <text x="40" y="106" font-size="9" fill="#0072ce" font-style="italic">FK  field</text>
  <text x="80" y="106" font-size="9" fill="#132033">= foreign key</text>
  <text x="40" y="119" font-size="9" font-weight="700" fill="#003087">PK  field</text>
  <text x="80" y="119" font-size="9" fill="#132033">= primary key</text>
</svg>
