<svg xmlns="http://www.w3.org/2000/svg" viewBox="0 0 24 24" fill="#6b7280">
  <path d="M12 2C6.48 2 2 6.58 2 12.24c0 4.53 2.87 8.37 6.84 9.73.5.09.66-.22.66-.49 0-.24-.01-.88-.02-1.73-2.78.62-3.37-1.38-3.37-1.38-.45-1.18-1.12-1.49-1.12-1.49-.91-.64.07-.63.07-.63 1 .07 1.53 1.06 1.53 1.06.9 1.57 2.35 1.12 2.92.86.09-.67.35-1.12.63-1.38-2.22-.26-4.56-1.15-4.56-5.11 0-1.13.39-2.06 1.03-2.79-.1-.26-.45-1.31.1-2.73 0 0 .84-.28 2.75 1.06A9.33 9.33 0 0 1 12 6.84c.85 0 1.71.12 2.51.36 1.91-1.34 2.75-1.06 2.75-1.06.55 1.42.2 2.47.1 2.73.64.73 1.03 1.66 1.03 2.79 0 3.97-2.34 4.84-4.57 5.1.36.32.68.95.68 1.92 0 1.39-.01 2.51-.01 2.85 0 .27.17.58.67.48A10.22 10.22 0 0 0 22 12.24C22 6.58 17.52 2 12 2Z"/>
</svg>
